<?xml version="1.0" standalone="no"?>
<!DOCTYPE svg PUBLIC "-//W3C//DTD SVG 20010904//EN"
 "http://www.w3.org/TR/2001/REC-SVG-20010904/DTD/svg10.dtd">
<svg version="1.0" xmlns="http://www.w3.org/2000/svg"
 width="250.000000pt" height="250.000000pt" viewBox="0 0 250.000000 250.000000"
 preserveAspectRatio="xMidYMid meet">
<metadata>
Created by potrace 1.14, written by Peter Selinger 2001-2017
</metadata>
<g transform="translate(0.000000,250.000000) scale(0.100000,-0.100000)"
fill="#000000" stroke="none">
<path d="M0 1250 l0 -1250 867 0 c674 0 864 3 855 12 -14 14 -16 29 -3 26 5
-2 16 5 23 14 12 15 15 15 32 3 16 -12 17 -18 8 -27 -7 -7 -12 -16 -12 -20 0
-4 164 -8 365 -8 l365 0 0 1250 0 1250 -1250 0 -1250 0 0 -1250z m300 1221 c0
-5 -7 -11 -15 -15 -15 -5 -20 5 -8 17 9 10 23 9 23 -2z m959 -24 c-2 -1 -13
-9 -24 -17 -19 -14 -19 -14 -6 3 7 9 18 17 24 17 6 0 8 -1 6 -3z m490 -621
c13 -15 95 -28 194 -30 38 -1 71 -6 75 -11 10 -15 69 -41 132 -60 30 -9 66
-28 79 -42 22 -21 23 -28 14 -52 -9 -25 -6 -32 24 -64 18 -20 33 -33 33 -29 1
13 59 -103 60 -119 0 -9 11 -21 25 -27 19 -9 25 -19 25 -43 0 -47 -29 -167
-56 -230 -13 -31 -24 -63 -24 -72 0 -8 -7 -20 -15 -27 -8 -6 -14 -15 -13 -18
3 -12 -26 -82 -33 -82 -11 0 -32 -69 -25 -85 3 -8 -3 -23 -12 -34 -14 -17 -32
-22 -96 -25 l-78 -5 27 22 c105 85 166 180 193 302 20 93 20 224 -1 309 -20
85 -74 191 -104 207 -13 7 -25 21 -29 31 -3 10 -20 26 -37 35 -18 8 -42 24
-55 34 -13 10 -55 27 -95 39 -40 12 -83 25 -97 29 -53 17 -233 -17 -305 -57
-82 -45 -106 -65 -206 -165 l-107 -107 -24 30 c-32 42 -148 159 -175 178 -21
13 -34 40 -14 27 5 -3 12 4 16 15 8 24 21 26 33 4 7 -12 34 -18 118 -25 60 -4
110 -8 112 -8 8 -2 0 -40 -13 -59 -28 -39 13 -14 69 43 28 28 73 61 99 74 27
13 51 30 54 37 3 8 8 12 12 10 15 -10 91 17 112 40 26 27 89 33 108 10z m-903
-45 c-4 -5 0 -12 6 -14 8 -4 7 -6 -4 -6 -9 -1 -20 4 -24 10 -3 6 -17 9 -30 6
-14 -2 -27 0 -30 4 -3 5 16 9 41 9 25 0 44 -4 41 -9z m-445 -79 c-34 -24 -123
-113 -146 -146 -75 -108 -105 -307 -71 -471 8 -38 18 -79 22 -90 7 -17 6 -18
-8 -7 -13 10 -17 10 -21 0 -4 -8 -6 -7 -6 5 -1 9 -6 17 -11 17 -6 0 -22 11
-35 24 -19 19 -23 32 -19 54 4 22 -1 36 -21 60 -26 31 -28 72 -4 72 6 0 7 30
3 78 -6 69 -3 87 26 177 18 55 41 111 51 124 11 13 19 31 19 39 0 9 14 31 32
49 32 33 33 33 122 33 89 -1 90 -1 67 -18z m421 -196 c69 -35 176 -136 233
-222 43 -63 44 -69 20 -92 -23 -22 -41 -30 -31 -13 3 5 -3 11 -13 14 -10 2
-26 20 -35 39 -10 20 -33 44 -56 57 -21 12 -40 25 -42 30 -2 4 -25 11 -52 15
-33 5 -46 4 -41 -3 4 -7 -4 -11 -19 -11 -14 0 -26 5 -26 10 0 15 -86 12 -127
-5 -19 -8 -43 -15 -53 -15 -10 0 -20 -7 -24 -15 -3 -8 -25 -20 -49 -26 -37 -9
-44 -14 -40 -30 6 -21 -4 -24 -26 -10 -21 13 -16 101 7 153 23 50 102 125 153
144 58 22 156 13 221 -20z m890 6 c-24 -19 -72 -28 -72 -14 0 5 17 13 38 19
54 15 60 15 34 -5z m178 -12 c0 -5 -2 -10 -4 -10 -3 0 -8 5 -11 10 -3 6 -1 10
4 10 6 0 11 -4 11 -10z m52 -27 c10 -9 18 -20 18 -25 0 -14 -28 -9 -44 8 -32
32 -8 48 26 17z m-341 -19 c-30 -25 -31 -27 -28 -107 4 -118 58 -245 142 -334
49 -51 57 -63 40 -64 -11 -1 -24 0 -30 1 -5 1 -25 6 -43 10 -18 5 -52 21 -74
36 -53 37 -148 128 -148 142 0 6 -10 18 -22 26 -13 8 -31 31 -42 50 l-18 35
36 44 c43 52 164 169 186 179 30 14 31 7 1 -18z m436 -251 c-2 -21 -4 -6 -4
32 0 39 2 55 4 38 2 -18 2 -50 0 -70z m-920 -115 c35 -33 30 -64 -12 -79 -19
-7 -35 -16 -35 -20 0 -4 -25 -13 -55 -20 -42 -9 -58 -10 -67 -1 -9 9 -9 12 0
12 7 0 12 8 12 18 0 10 11 29 25 42 14 13 25 29 25 36 0 36 73 44 107 12z
m-586 -59 c27 -4 60 -20 88 -40 12 -10 39 -22 60 -25 l36 -7 -28 -8 c-44 -12
-116 17 -169 69 -27 26 -48 50 -48 55 0 6 12 -2 26 -17 15 -14 31 -27 35 -27z
m732 -32 c12 -13 49 -52 82 -88 67 -72 144 -134 193 -154 45 -20 42 -39 -5
-31 -103 18 -214 30 -263 28 -52 -2 -147 -38 -177 -67 -21 -21 -219 -68 -250
-60 -15 4 -67 10 -116 12 -74 4 -89 7 -98 24 -5 11 -22 25 -37 31 -16 6 -22
12 -14 15 7 3 19 0 26 -6 23 -19 246 10 279 37 6 6 32 18 56 28 24 9 53 26 65
36 11 11 49 42 83 69 34 27 65 59 68 70 4 11 12 19 18 18 7 -1 20 1 30 4 9 4
25 10 35 13 16 5 16 6 0 18 -10 7 -18 16 -18 20 0 13 22 5 43 -17z m-1023 -67
c0 -6 11 -20 25 -32 14 -12 25 -27 25 -34 0 -7 15 -23 33 -35 17 -12 37 -27
42 -34 14 -15 146 -79 167 -79 9 -1 20 -4 24 -9 4 -4 -9 -5 -29 -3 -20 3 -37
1 -37 -4 0 -6 -7 -10 -15 -10 -8 0 -15 -7 -15 -15 0 -8 -14 -17 -34 -20 -52
-10 -81 -3 -84 21 -2 11 -25 45 -53 74 -29 31 -48 59 -44 67 3 8 -11 31 -30
51 -34 37 -41 52 -28 65 10 11 53 8 53 -3z m1793 -178 c-7 -4 -16 -25 -20 -46
-8 -37 -11 -40 -63 -53 -30 -7 -67 -22 -82 -33 -30 -22 -59 -25 -86 -11 -9 6
-30 13 -47 17 -21 5 -25 8 -12 11 21 5 22 17 1 37 -12 12 -12 16 -2 16 74 2
230 31 263 49 37 20 75 30 48 13z m-1767 -638 c-16 -11 -22 -11 -28 -1 -12 19
-9 30 7 23 8 -3 15 0 15 6 0 9 4 8 13 -1 10 -10 8 -15 -7 -27z"/>
</g>
</svg>
